<?xml version="1.0" encoding="utf-8"?>
<svg width="175px" height="42px" viewBox="0 0 175 42" version="1.1" xmlns:xlink="http://www.w3.org/1999/xlink" xmlns="http://www.w3.org/2000/svg">
  <defs>
    <path d="M0 0L173 0L173 40L0 40L0 0Z" id="path_1" />
    <path d="M0 0L27.4286 0L27.4286 27.4286L0 27.4286L0 0Z" id="path_2" />
    <clipPath id="mask_1">
      <use xlink:href="#path_1" />
    </clipPath>
    <clipPath id="mask_2">
      <use xlink:href="#path_2" />
    </clipPath>
  </defs>
  <g id="logo" transform="translate(1 1)">
    <path d="M0 0L173 0L173 40L0 40L0 0Z" id="Background" fill="none" fill-rule="evenodd" stroke="none" />
    <g clip-path="url(#mask_1)">
      <path d="M16.5119 0C18.1439 0 19.4559 0.504 20.4479 1.512C21.4559 2.504 21.9599 3.896 21.9599 5.688L21.9599 13.488L18.5999 13.488L18.5999 6.144C18.5999 5.104 18.3359 4.312 17.8079 3.768C17.2799 3.208 16.5599 2.928 15.6479 2.928C14.7359 2.928 14.0079 3.208 13.4639 3.768C12.9359 4.312 12.6719 5.104 12.6719 6.144L12.6719 13.488L9.31201 13.488L9.31201 6.144C9.31201 5.104 9.048 4.312 8.52001 3.768C7.992 3.208 7.272 2.928 6.36 2.928C5.432 2.928 4.696 3.208 4.152 3.768C3.624 4.312 3.36 5.104 3.36 6.144L3.36 13.488L0 13.488L0 0.192L3.36 0.192L3.36 1.8C3.792 1.24 4.344 0.8 5.016 0.48C5.704 0.16 6.456 0 7.272 0C8.312 0 9.24 0.224 10.056 0.672C10.872 1.104 11.5039 1.728 11.9519 2.544C12.3839 1.776 13.0079 1.16 13.8239 0.696C14.6559 0.232 15.5519 0 16.5119 0L16.5119 0Z" transform="translate(88.94507 14.511993)" id="Shape" fill="#FFFFFF" fill-rule="evenodd" stroke="none" />
      <path d="M6.744 13.728C5.464 13.728 4.312 13.448 3.288 12.888C2.264 12.312 1.456 11.504 0.863998 10.464C0.288002 9.424 0 8.224 0 6.864C0 5.504 0.296005 4.304 0.888 3.264C1.496 2.224 2.32 1.424 3.36 0.864C4.4 0.288 5.56001 0 6.84 0C8.12 0 9.28 0.288 10.32 0.864C11.36 1.424 12.176 2.224 12.768 3.264C13.376 4.304 13.68 5.504 13.68 6.864C13.68 8.224 13.368 9.424 12.744 10.464C12.136 11.504 11.304 12.312 10.248 12.888C9.208 13.448 8.04 13.728 6.744 13.728L6.744 13.728ZM6.744 10.8C7.35201 10.8 7.92 10.656 8.448 10.368C8.992 10.064 9.424 9.616 9.744 9.024C10.064 8.432 10.224 7.712 10.224 6.864C10.224 5.6 9.888 4.632 9.216 3.96C8.56001 3.272 7.752 2.928 6.792 2.928C5.832 2.928 5.024 3.272 4.368 3.96C3.728 4.632 3.408 5.6 3.408 6.864C3.408 8.128 3.72 9.104 4.344 9.792C4.984 10.464 5.784 10.8 6.744 10.8L6.744 10.8Z" transform="translate(113.25299 14.488007)" id="Shape" fill="#FFFFFF" fill-rule="evenodd" stroke="none" />
      <path d="M7.36801 0C8.95201 0 10.232 0.504 11.208 1.512C12.184 2.504 12.672 3.896 12.672 5.688L12.672 13.488L9.31201 13.488L9.31201 6.144C9.31201 5.088 9.048 4.28 8.52 3.72C7.992 3.144 7.272 2.856 6.36 2.856C5.43201 2.856 4.696 3.144 4.15201 3.72C3.62401 4.28 3.36 5.088 3.36 6.144L3.36 13.488L0 13.488L0 0.192L3.36 0.192L3.36 1.848C3.808 1.272 4.37601 0.824 5.06401 0.504C5.76801 0.168 6.53601 0 7.36801 0L7.36801 0Z" transform="translate(129.39801 14.511993)" id="Shape" fill="#FFFFFF" fill-rule="evenodd" stroke="none" />
      <path d="M13.224 6.576C13.224 7.056 13.192 7.488 13.128 7.872L3.408 7.872C3.48801 8.832 3.82401 9.584 4.416 10.128C5.008 10.672 5.73599 10.944 6.60001 10.944C7.84799 10.944 8.73599 10.408 9.26399 9.336L12.888 9.336C12.504 10.616 11.768 11.672 10.68 12.504C9.592 13.32 8.256 13.728 6.672 13.728C5.392 13.728 4.24001 13.448 3.216 12.888C2.20799 12.312 1.416 11.504 0.839996 10.464C0.279999 9.424 0 8.224 0 6.864C0 5.488 0.279999 4.28 0.839996 3.24C1.39999 2.2 2.18401 1.4 3.192 0.84C4.2 0.28 5.36 0 6.672 0C7.936 0 9.064 0.272 10.056 0.816C11.064 1.36 11.84 2.136 12.384 3.144C12.944 4.136 13.224 5.28 13.224 6.576L13.224 6.576ZM9.744 5.616C9.728 4.752 9.416 4.064 8.808 3.552C8.2 3.024 7.45599 2.76 6.576 2.76C5.744 2.76 5.03999 3.016 4.464 3.528C3.90399 4.024 3.56 4.72 3.43199 5.616L9.744 5.616L9.744 5.616Z" transform="translate(144.401 14.488007)" id="Shape" fill="#FFFFFF" fill-rule="evenodd" stroke="none" />
      <path d="M14.256 0L6.02399 19.584L2.448 19.584L5.32799 12.96L0 0L3.76799 0L7.2 9.288L10.68 0L14.256 0L14.256 0Z" transform="translate(158.54199 14.70401)" id="Shape" fill="#FFFFFF" fill-rule="evenodd" stroke="none" />
      <path d="M34.1422 5.85781C30.3647 2.08031 25.3422 0 20 0C14.6578 0 9.63531 2.08031 5.85781 5.85781C2.08031 9.63531 0 14.6578 0 20C0 25.3422 2.08039 30.3646 5.85781 34.1422C9.63523 37.9198 14.6578 40 20 40C25.3422 40 30.3647 37.9197 34.1422 34.1422C37.9197 30.3647 40 25.3422 40 20C40 14.6578 37.9196 9.63539 34.1422 5.85781L34.1422 5.85781Z" id="Shape" fill="#33CC95" fill-rule="evenodd" stroke="none" />
      <g id="Mask-group" transform="translate(6.857147 6.857147)">
        <path d="M0 0L27.4286 0L27.4286 27.4286L0 27.4286L0 0Z" id="Rectangle" fill="none" fill-rule="evenodd" stroke="none" />
        <g clip-path="url(#mask_2)">
          <g id="Group" transform="translate(6.85715 1.1428599)">
            <path d="M0 0L0 25.1429" transform="translate(6.8570995 0)" id="Shape" fill="none" fill-rule="evenodd" stroke="#FFFFFF" stroke-width="2" stroke-linecap="round" stroke-linejoin="round" />
            <path d="M12.5714 0L4 0C2.9391 0 1.9217 0.4215 1.1716 1.1716C0.4214 1.9217 0 2.9392 0 4C0 5.0609 0.4214 6.0783 1.1716 6.8285C1.9217 7.5786 2.9391 8 4 8L9.7143 8C10.7751 8 11.7926 8.4215 12.5427 9.1716C13.2929 9.9218 13.7143 10.9392 13.7143 12C13.7143 13.0609 13.2929 14.0783 12.5427 14.8285C11.7926 15.5786 10.7751 16 9.7143 16L0 16" transform="translate(0 4.5713997)" id="Shape" fill="none" fill-rule="evenodd" stroke="#FFFFFF" stroke-width="2" stroke-linecap="round" stroke-linejoin="round" />
          </g>
        </g>
      </g>
    </g>
  </g>
  <g id="JD" fill="#FFFFFF" transform="translate(43.5 3)">
    <path d="M4.92001 24.1961C4.92 24.1212 4.92 24.0459 4.92 23.97L4.92 15.36C4.92 10.8 4.92 9.96 4.86 9C4.8 7.98 4.56 7.5 3.57 7.29C3.33 7.23 2.82 7.2 2.4 7.2C2.07 7.2 1.89 7.14 1.89 6.93C1.89 6.72 2.1 6.66 2.55 6.66C4.14 6.66 6.03 6.75 6.81 6.75C7.53 6.75 9.42 6.66 10.59 6.66C11.01 6.66 11.22 6.72 11.22 6.93C11.22 7.14 11.04 7.2 10.68 7.2C10.35 7.2 10.17 7.23 9.81 7.29C9 7.44 8.76 7.95 8.7 9C8.64 9.96 8.64 10.8 8.64 15.36L8.64 20.91C8.64 22.2 8.73 23.64 8.73 25.14C8.73 26.85 8.61 28.77 8.01 30.45C7.38 32.28 5.79 34.35 2.91 36.12C2.52 36.36 2.04 36.6 1.41 36.9C1.2 37.02 0.96 37.08 0.81 37.08C0.69 37.08 0.57 36.99 0.57 36.84C0.57 36.69 0.72 36.57 1.23 36.3C1.62 36.09 2.07 35.76 2.67 35.16C4.92059 32.8798 4.92039 29.9273 4.92001 24.1961ZM17.25 27.03C17.4 25.77 17.4 23.4 17.4 20.64L17.4 15.36C17.4 10.8 17.4 9.96 17.34 9C17.28 7.98 17.04 7.5 16.05 7.29C15.81 7.23 15.3 7.2 14.88 7.2C14.55 7.2 14.37 7.14 14.37 6.93C14.37 6.72 14.58 6.66 15.03 6.66C16.62 6.66 18.51 6.75 19.35 6.75C20.28 6.75 22.17 6.66 23.97 6.66C27.72 6.66 32.73 6.66 36 10.08C37.5 11.64 38.91 14.13 38.91 17.7C38.91 21.48 37.32 24.36 35.64 26.07C34.26 27.48 31.14 29.61 25.59 29.61C24.51 29.61 23.28 29.52 22.14 29.43C21 29.34 19.95 29.25 19.2 29.25C18.87 29.25 18.21 29.25 17.49 29.28C16.8 29.28 16.02 29.34 15.42 29.34C15.03 29.34 14.82 29.25 14.82 29.04C14.82 28.89 14.94 28.8 15.3 28.8C15.75 28.8 16.11 28.74 16.38 28.68C16.98 28.56 17.13 27.9 17.25 27.03ZM21.18 8.88C21.15 9.9 21.15 12.51 21.15 14.88L21.15 18.66C21.15 21.84 21.18 24.15 21.21 24.72C21.24 25.47 21.3 26.67 21.54 27C21.93 27.57 23.1 28.2 25.47 28.2C28.53 28.2 30.57 27.6 32.37 26.04C34.29 24.39 34.89 21.66 34.89 18.57C34.89 14.76 33.3 12.3 32.01 11.07C29.25 8.43 25.83 8.07 23.49 8.07C22.89 8.07 21.78 8.16 21.54 8.28C21.27 8.4 21.18 8.55 21.18 8.88Z" />
  </g>
</svg>